<svg width="26.656982" height="26.653809" viewBox="0 0 26.657 26.6538" fill="none" xmlns="http://www.w3.org/2000/svg" xmlns:xlink="http://www.w3.org/1999/xlink">
	<desc>
			Created with Pixso.
	</desc>
	<defs/>
	<path id="Vector" d="M14.697 0C17.097 0 17.604 0.0268555 18.83 0.0800781C20.243 0.146973 21.217 0.373047 22.057 0.707031C22.937 1.04004 23.684 1.50684 24.417 2.24023C25.1639 2.97314 25.6169 3.72021 25.964 4.6001C26.297 5.43994 26.511 6.41309 26.577 7.83984C26.644 9.10693 26.657 9.6001 26.657 12.2671L26.657 14.3999C26.657 17.0669 26.644 17.5601 26.577 18.8271C26.554 19.9922 26.3311 21.0972 25.941 22.1211L25.963 22.0542C25.616 22.9341 25.163 23.6812 24.4301 24.4141C23.683 25.1611 22.937 25.6138 22.057 25.9609C21.217 26.2939 20.244 26.5078 18.83 26.5742C17.563 26.6411 17.057 26.6538 14.39 26.6538L12.27 26.6538C9.60303 26.6538 9.10999 26.6411 7.82996 26.5742C6.66504 26.5508 5.56006 26.3281 4.53601 25.938L4.60303 25.96C3.68005 25.6069 2.89294 25.0859 2.24402 24.4268L2.24304 24.4258C1.57703 23.7739 1.05103 22.9819 0.71106 22.0972L0.696045 22.0518C0.328979 21.0962 0.105957 19.9902 0.0830078 18.835L0.0830078 18.8252C0.0300293 17.7832 0 16.562 0 15.335C0 15.1089 0.000976562 14.8828 0.00305176 14.6582L0.00305176 14.6919L0.00305176 11.959C0.00305176 9.55908 0.0300293 9.05176 0.0830078 7.82617C0.150024 6.41309 0.375977 5.43896 0.696045 4.59912C1.04297 3.71924 1.49597 2.97217 2.24304 2.23877C2.88794 1.57178 3.677 1.04883 4.56006 0.720215L4.60303 0.706055C5.55798 0.334961 6.66296 0.106934 7.81799 0.0800781L7.82996 0.0800781C9.05701 0.0268555 9.56299 0 11.963 0L14.697 0ZM14.724 2.3999L11.937 2.3999C9.63 2.3999 9.13696 2.42676 7.93701 2.47998C6.64404 2.5332 5.93701 2.74707 5.46997 2.93311C4.84302 3.17285 4.40295 3.46582 3.93701 3.93311C3.47095 4.3999 3.177 4.83984 2.93701 5.46582C2.76404 5.93311 2.53699 6.63916 2.48401 7.9458C2.43103 9.146 2.40405 9.62598 2.40405 11.9458L2.40405 14.7192C2.40405 17.0391 2.43103 17.519 2.48401 18.7192C2.53699 20.0122 2.75098 20.7192 2.93701 21.186C3.177 21.813 3.46997 22.2529 3.93701 22.7192C4.40405 23.1851 4.84399 23.479 5.46997 23.7192C5.93701 23.9058 6.64294 24.1191 7.94995 24.1719C9.24304 24.2388 9.70996 24.252 12.59 24.252L14.0699 24.252C16.963 24.252 17.417 24.2388 18.723 24.1719C20.016 24.1191 20.723 23.9048 21.1899 23.7192C21.817 23.479 22.257 23.186 22.723 22.7192C23.189 22.252 23.483 21.812 23.723 21.186C23.91 20.7192 24.123 20.0132 24.176 18.7192C24.243 17.4121 24.256 16.959 24.256 14.0659L24.256 12.5991C24.256 9.70605 24.243 9.23877 24.176 7.93213C24.123 6.63916 23.9091 5.93213 23.723 5.46484C23.4969 4.86377 23.156 4.35107 22.724 3.93311L22.723 3.93213C22.303 3.49902 21.791 3.1582 21.218 2.94092L21.1899 2.93213C20.458 2.65576 19.6121 2.49121 18.728 2.479L18.723 2.479C17.6949 2.42676 16.4919 2.39697 15.281 2.39697C15.085 2.39697 14.889 2.39795 14.693 2.39893L14.723 2.39893L14.724 2.3999ZM13.337 6.47998C17.118 6.47998 20.184 9.54492 20.184 13.3271C20.184 17.1089 17.119 20.1738 13.337 20.1738C9.55603 20.1738 6.48999 17.1089 6.48999 13.3271C6.48999 9.54492 9.55505 6.47998 13.337 6.47998ZM13.337 8.87988C10.881 8.87988 8.89001 10.8711 8.89001 13.3271C8.89001 15.7832 10.881 17.7739 13.337 17.7739C15.793 17.7739 17.7841 15.7832 17.7841 13.3271C17.7841 10.8711 15.793 8.87988 13.337 8.87988ZM20.444 4.61279C21.328 4.61279 22.0439 5.3291 22.0439 6.21289C22.0439 7.09717 21.328 7.81299 20.444 7.81299C19.5601 7.81299 18.844 7.09717 18.844 6.21289C18.844 5.3291 19.5601 4.61279 20.444 4.61279Z" fill="#FFFFFF" fill-opacity="1.000000" fill-rule="nonzero"/>
</svg>
