<svg width="26.572021" height="26.667969" viewBox="0 0 26.572 26.668" fill="none" xmlns="http://www.w3.org/2000/svg" xmlns:xlink="http://www.w3.org/1999/xlink">
	<desc>
			Created with Pixso.
	</desc>
	<defs/>
	<path id="Vector" d="M13.286 0C5.94299 0.0268555 0 5.98584 0 13.333C0 18.9321 3.45203 23.7261 8.34302 25.7012L8.43201 25.7329C8.29895 24.6802 8.20496 23.0659 8.47205 21.9058L10.032 15.2788C10.032 15.2788 9.63196 14.479 9.63196 13.3062C9.63196 11.4531 10.712 10.0791 12.059 10.0791C13.192 10.0791 13.752 10.9321 13.752 11.9458C13.752 13.0928 13.019 14.7988 12.632 16.3862C12.312 17.7192 13.299 18.7988 14.619 18.7988C16.9919 18.7988 18.806 16.3062 18.806 12.7061C18.806 9.50586 16.5131 7.29297 13.233 7.29297C13.157 7.28906 13.069 7.28711 12.98 7.28711C9.79102 7.28711 7.20703 9.87207 7.20703 13.0601C7.20703 13.062 7.20703 13.064 7.20703 13.0659C7.20703 14.2129 7.64697 15.439 8.19397 16.106C8.30103 16.2388 8.31396 16.3589 8.27405 16.4932L7.901 18C7.84802 18.2402 7.70105 18.3071 7.46106 18.187C5.78101 17.3999 4.74097 14.9868 4.74097 13.0142C4.74097 8.81396 7.80798 4.96094 13.568 4.96094C18.181 4.96094 21.795 8.24121 21.795 12.6538C21.795 17.2539 18.8881 20.9468 14.8621 20.9468C13.5291 20.9468 12.249 20.2402 11.822 19.4141L10.9821 22.5742C10.551 23.9111 9.98999 25.0718 9.29395 26.1372L9.328 26.0811C10.498 26.4531 11.844 26.668 13.239 26.668C20.603 26.668 26.572 20.6982 26.572 13.335C26.572 5.98779 20.63 0.0288086 13.29 0.00195312L13.287 0.00195312L13.286 0Z" fill="#FFFFFF" fill-opacity="1.000000" fill-rule="nonzero"/>
</svg>
