<svg width="26.666992" height="21.666016" viewBox="0 0 26.667 21.666" fill="none" xmlns="http://www.w3.org/2000/svg" xmlns:xlink="http://www.w3.org/1999/xlink">
	<desc>
			Created with Pixso.
	</desc>
	<defs/>
	<path id="Vector" d="M26.665 2.50586C25.665 2.99902 24.665 3.17285 23.4919 3.33301C24.665 2.66602 25.4919 1.66602 25.825 0.333008C24.8199 0.940918 23.649 1.40381 22.402 1.65479L22.332 1.66699C21.301 0.652832 19.892 0.0209961 18.3361 0L18.332 0C15.4919 0 12.999 2.50684 12.999 5.50684C12.999 6 12.999 6.33398 13.172 6.66699C8.59399 6.48877 4.55298 4.33008 1.86096 1.02783L1.83899 1C1.41394 1.72607 1.16296 2.59814 1.16296 3.52881C1.16296 3.63818 1.16602 3.74707 1.17297 3.85498L1.172 3.83984C1.20605 5.71777 2.18103 7.36084 3.64502 8.3208L3.66602 8.33398C2.82605 8.33398 1.99902 8.00098 1.15906 7.66699C1.15906 10.334 2.99902 12.5068 5.49194 13C4.99902 13.1729 4.49194 13.1729 3.99902 13.1729C3.66602 13.1729 3.33203 13.1729 2.99902 13C3.66602 15.1729 5.66602 16.8398 8.172 16.8398C6.37195 18.2949 4.05603 19.1748 1.53503 19.1748C1.46399 19.1748 1.39294 19.1738 1.32202 19.1729L1.33301 19.1729L0 19.1729C2.36499 20.6821 5.23596 21.6021 8.31604 21.666L8.33301 21.666C18.333 21.666 23.84 13.333 23.84 6.15918L23.84 5.49219C24.9871 4.70215 25.933 3.70508 26.6429 2.54785L26.667 2.50586L26.665 2.50586Z" fill="#FFFFFF" fill-opacity="1.000000" fill-rule="nonzero"/>
</svg>
